#!OML:ASF F:\VICON\USERDATA\INSTALL\Justin_Nancy\Justin_Nancy.ASF
:FULLY-SPECIFIED
:DEGREES
562
root -0.251457 16.9695 41.2429 1.60025 -4.37446 -4.3246
lowerback 6.01849 2.43191 4.24805
upperback -0.905008 3.66299 2.42096
thorax -4.20804 1.74308 -0.218158
lowerneck -18.1558 -4.69542 -10.0268
upperneck 21.0745 -5.4496 7.31853
head 10.2135 -2.48313 3.48662
rclavicle -6.92019e-015 -6.36111e-015
rhumerus -20.6041 -9.23816 -77.4976
rradius 38.1227
rwrist 0.439085
rhand -17.741 14.4618
rfingers 7.12502
rthumb 8.52029 -15.3463
lclavicle -6.92019e-015 -6.36111e-015
lhumerus -36.1149 13.719 81.5512
lradius 20.2826
lwrist -15.134
lhand -10.3137 27.9974
lfingers 7.12502
lthumb 15.6815 57.382
rfemur 12.6242 5.54092 30.6701
rtibia 15.6972
rfoot -14.9179 -8.29352
rtoes -15.5311
lfemur -32.4449 -5.45247 -12.4962
ltibia 23.1238
lfoot -7.56785 3.90345
ltoes -7.20383
563
root -0.232013 16.9492 41.4224 1.44188 -4.29415 -4.26163
lowerback 5.93561 2.43132 4.28564
upperback -0.828812 3.65351 2.36488
thorax -4.07608 1.74024 -0.290101
lowerneck -17.8147 -4.61269 -9.92882
upperneck 20.8442 -5.40546 7.40308
head 10.0617 -2.45106 3.50695
rclavicle -4.54223e-014 -9.54166e-015
rhumerus -20.6046 -9.53709 -77.4684
rradius 38.1801
rwrist 0.582088
rhand -17.6818 14.835
rfingers 7.12502
rthumb 8.57738 -14.9708
lclavicle -4.54223e-014 -9.54166e-015
lhumerus -35.9676 14.394 81.1964
lradius 19.4241
lwrist -16.0046
lhand -10.2048 27.8596
lfingers 7.12502
lthumb 15.7864 57.2359
rfemur 12.9988 5.63763 30.6057
rtibia 16.7144
rfoot -14.8341 -8.49045
rtoes -18.6245
lfemur -32.1293 -5.29415 -12.8994
ltibia 23.7499
lfoot -6.2759 3.20068
ltoes -5.73814
564
root -0.208475 16.9255 41.6197 1.37526 -4.18984 -3.95275
lowerback 5.63257 2.44421 4.09386
upperback -0.71747 3.62861 2.25382
thorax -3.7941 1.73793 -0.278693
lowerneck -17.6996 -4.62808 -10.0798
upperneck 20.7648 -5.44724 7.62995
head 10.0274 -2.45872 3.60755
rclavicle 1.73191e-014 -2.5842e-014
rhumerus -20.5583 -9.79921 -77.4371
rradius 38.4077
rwrist 0.621066
rhand -17.5462 14.6552
rfingers 7.12502
rthumb 8.70826 -15.1452
lclavicle 1.73191e-014 -2.5842e-014
lhumerus -36.005 14.7736 81.0391
lradius 19.1114
lwrist -16.7406
lhand -9.66392 28.1274
lfingers 7.12502
lthumb 16.3073 57.4617
rfemur 13.1954 5.3307 30.0982
rtibia 17.952
rfoot -14.7616 -8.36164
rtoes -21.6286
lfemur -31.8041 -5.53313 -13.485
ltibia 24.3964
lfoot -5.29662 2.94675
ltoes -5.81711
565
root -0.187499 16.9027 41.8126 1.1816 -4.27669 -3.5175
lowerback 5.48627 2.51574 3.73311
upperback -0.702931 3.68487 2.10727
thorax -3.70682 1.77405 -0.22672
lowerneck -17.2503 -4.64102 -10.1114
upperneck 20.698 -5.51877 7.7113
head 9.93019 -2.49447 3.63477
rclavicle 1.13059e-015 6.36111e-015
rhumerus -20.9883 -9.96672 -77.3645
rradius 38.842
rwrist 0.553169
rhand -17.5182 14.7828
rfingers 7.12502
rthumb 8.73527 -15.0165
lclavicle 1.13059e-015 6.36111e-015
lhumerus -36.3901 14.7689 80.9076
lradius 19.0222
lwrist -17.0578
lhand -9.2832 28.6882
lfingers 7.12502
lthumb 16.6738 57.9921
rfemur 13.5338 5.19941 29.5098
rtibia 19.1101
rfoot -14.4565 -8.1419
rtoes -22.7813
lfemur -31.3298 -5.91949 -14.1033
ltibia 25.0791
lfoot -4.67435 2.78566
ltoes -5.45482
566
root -0.172653 16.8961 41.9986 0.813814 -4.65188 -3.6435
lowerback 5.75033 2.63378 3.84606
upperback -0.75119 3.86786 2.13595
thorax -3.89538 1.85858 -0.289634
lowerneck -16.7533 -4.62797 -9.87156
upperneck 20.6701 -5.54319 7.41507
head 9.81345 -2.53026 3.48955
rclavicle 3.03892e-014 2.26615e-014
rhumerus -21.7718 -10.0206 -77.3013
rradius 39.5158
rwrist 0.396202
rhand -17.5536 14.64
rfingers 7.12502
rthumb 8.70109 -15.1607
lclavicle 3.03892e-014 2.26615e-014
lhumerus -36.7791 15.2185 80.5221
lradius 18.599
lwrist -17.7127
lhand -9.29827 28.9729
lfingers 7.12502
lthumb 16.6593 58.278
rfemur 13.8428 5.57791 29.682
rtibia 20.2576
rfoot -13.673 -7.87678
rtoes -21.8741
lfemur -30.6175 -6.1729 -14.0098
ltibia 25.6916
lfoot -3.62459 2.25848
ltoes -3.83854
567
root -0.150815 16.9167 42.1991 0.551917 -4.8476 -3.87282
lowerback 6.03922 2.69795 4.21109
upperback -0.845991 4.00081 2.13331
thorax -4.12867 1.9101 -0.523855
lowerneck -16.6326 -4.58504 -9.61704
upperneck 20.8696 -5.51799 7.18086
head 9.8439 -2.52769 3.37143
rclavicle -5.82066e-015 -2.22639e-014
rhumerus -22.3557 -10.2267 -77.266
rradius 39.8735
rwrist 0.419323
rhand -17.4303 14.3217
rfingers 7.12502
rthumb 8.82012 -15.474
lclavicle -5.82066e-015 -2.22639e-014
lhumerus -37.073 15.3081 80.2566
lradius 18.1143
lwrist -18.091
lhand -9.70121 28.7301
lfingers 7.12502
lthumb 16.2714 58.0674
rfemur 13.8391 5.79149 29.832
rtibia 21.6022
rfoot -13.1635 -7.12432
rtoes -18.8164
lfemur -30.0459 -5.93986 -14.046
ltibia 26.2013
lfoot -1.7161 1.12423
ltoes -1.49855
568
root -0.118939 16.9425 42.4105 0.535989 -4.90986 -3.55139
lowerback 5.97849 2.76958 4.12913
upperback -1.06124 4.08857 1.94494
thorax -4.30696 1.94753 -0.683506
lowerneck -16.1268 -4.51648 -9.63232
upperneck 20.7158 -5.52563 7.45631
head 9.70379 -2.51217 3.4744
rclavicle -2.04531e-014 5.1684e-015
rhumerus -22.97 -10.4002 -77.1617
rradius 39.9902
rwrist 0.443121
rhand -17.3894 13.8684
rfingers 7.12502
rthumb 8.85955 -15.9257
lclavicle -2.04531e-014 5.1684e-015
lhumerus -37.4622 15.7025 79.7517
lradius 17.6177
lwrist -18.9509
lhand -9.76656 28.2907
lfingers 7.12502
lthumb 16.2084 57.6331
rfemur 13.4842 5.5764 29.1612
rtibia 23.2867
rfoot -12.7475 -6.23004
rtoes -17.0292
lfemur -29.7882 -5.50523 -14.826
ltibia 26.5781
lfoot 0.209882 0.271235
ltoes 0.807561
569
root -0.0946888 16.9541 42.6114 0.38638 -5.22422 -3.24869
lowerback 5.88366 2.88457 3.93913
upperback -1.03419 4.21494 1.80248
thorax -4.22249 2.01538 -0.730097
lowerneck -16.5391 -4.49246 -9.27023
upperneck 21.3035 -5.49711 7.10774
head 9.96467 -2.50165 3.29812
rclavicle -3.58558e-014 -2.26615e-014
rhumerus -23.2738 -10.7352 -77.1574
rradius 40.1176
rwrist 0.756889
rhand -17.4164 13.8065
rfingers 7.12502
rthumb 8.83353 -15.9886
lclavicle -3.58558e-014 -2.26615e-014
lhumerus -37.5789 16.1964 79.346
lradius 17.2988
lwrist -19.5806
lhand -9.33461 28.3735
lfingers 7.12502
lthumb 16.6243 57.6815
rfemur 13.0765 5.71241 28.6602
rtibia 25.3302
rfoot -11.7932 -5.65531
rtoes -17.2464
lfemur -29.3267 -4.62657 -15.5856
ltibia 26.8447
lfoot 1.42928 -0.384329
ltoes 1.50016
570
root -0.0792 16.9654 42.8111 0.144692 -5.48871 -2.87507
lowerback 5.80144 2.97598 3.5134
upperback -0.912179 4.29434 1.75091
thorax -4.07226 2.06879 -0.545935
lowerneck -16.7311 -4.54708 -9.32352
upperneck 21.4856 -5.5568 7.12917
head 10.0738 -2.52778 3.30675
rclavicle 2.84511e-015 9.14409e-015
rhumerus -23.4839 -11.0023 -77.1252
rradius 40.2726
rwrist 0.808072
rhand -17.7234 13.1241
rfingers 7.12502
rthumb 8.53729 -16.6833
lclavicle 2.84511e-015 9.14409e-015
lhumerus -37.5536 17.1804 78.8844
lradius 16.8184
lwrist -20.6084
lhand -9.20329 28.6043
lfingers 7.12502
lthumb 16.7507 57.9016
rfemur 12.455 5.82397 28.1403
rtibia 27.8635
rfoot -10.3784 -5.16326
rtoes -17.1773
lfemur -28.636 -3.87936 -16.374
ltibia 27.043
lfoot 1.84596 -0.547264
ltoes -0.373316
571
root -0.0599863 16.9848 43.0144 -0.0679582 -5.45781 -2.23858
lowerback 5.6791 2.94734 2.9282
upperback -0.847212 4.19967 1.57808
thorax -3.96641 2.03613 -0.382623
lowerneck -16.9412 -4.60693 -9.47918
upperneck 21.8308 -5.62498 7.23963
head 10.2525 -2.55637 3.36581
rclavicle -2.09656e-014 -5.96354e-015
rhumerus -23.695 -11.402 -77.1997
rradius 40.4519
rwrist 0.987121
rhand -17.8603 12.0102
rfingers 7.12502
rthumb 8.4052 -17.8025
lclavicle -2.09656e-014 -5.96354e-015
lhumerus -37.5912 17.4932 78.6837
lradius 16.6193
lwrist -20.7109
lhand -9.27368 28.7438
lfingers 7.12502
lthumb 16.683 58.0469
rfemur 11.583 5.503 27.1932
rtibia 30.8092
rfoot -8.86817 -4.54932
rtoes -16.1687
lfemur -27.8761 -3.47668 -17.4518
ltibia 27.2982
lfoot 1.86808 -0.507991
ltoes -0.170746
572
root -0.0450752 17.0061 43.1974 -0.249013 -5.28858 -1.52381
lowerback 5.56648 2.89697 2.25237
upperback -0.756832 4.06887 1.32718
thorax -3.83987 1.98622 -0.245702
lowerneck -16.9182 -4.62411 -9.45101
upperneck 21.8553 -5.70899 7.42651
head 10.2696 -2.57192 3.41704
rclavicle -5.75854e-015 -1.03368e-014
rhumerus -23.6877 -12.2711 -77.3148
rradius 40.231
rwrist 1.63616
rhand -17.6837 12.1176
rfingers 7.12502
rthumb 8.57559 -17.6882
lclavicle -5.75854e-015 -1.03368e-014
lhumerus -37.5357 17.9039 78.3316
lradius 16.4609
lwrist -20.9543
lhand -9.1013 28.6689
lfingers 7.12502
lthumb 16.8489 57.9579
rfemur 10.4682 4.97913 26.1393
rtibia 33.9109
rfoot -6.7262 -4.04906
rtoes -15.4908
lfemur -27.1988 -3.11937 -18.5746
ltibia 27.625
lfoot 1.54436 -1.04268
ltoes 1.28975
573
root -0.030014 17.0145 43.3646 -0.395657 -5.13505 -1.15322
lowerback 6.05181 2.85266 1.92221
upperback -1.11304 4.00539 1.1879
thorax -4.49711 1.95065 -0.23905
lowerneck -16.3501 -4.59937 -9.61089
upperneck 22.0226 -5.74815 7.63948
head 10.2374 -2.59213 3.52434
rclavicle -6.13437e-016 2.0276e-014
rhumerus -24.3884 -13.4012 -77.1449
rradius 39.7628
rwrist 2.50465
rhand -17.4579 12.9286
rfingers 7.12502
rthumb 8.79347 -16.8682
lclavicle -6.13437e-016 2.0276e-014
lhumerus -38.2636 18.2387 77.7625
lradius 16.4147
lwrist -21.268
lhand -8.65643 29.1238
lfingers 7.12502
lthumb 17.2771 58.3758
rfemur 9.15876 4.4613 25.4616
rtibia 37.0377
rfoot -3.73991 -3.83518
rtoes -15.0702
lfemur -26.6494 -2.70921 -19.2975
ltibia 27.9866
lfoot 0.732349 -2.09666
ltoes 1.1216
